<svg width="162" height="181" viewBox="0 0 162 181" fill="none" xmlns="http://www.w3.org/2000/svg">
<g clip-path="url(#clip0_378_2069)">
<path d="M100.634 138.22C100.41 137.686 100.301 136.983 100.301 136.113V125.032H92.3453V125.406C92.8083 125.476 93.145 125.63 93.3485 125.861C93.5554 126.091 93.6922 126.483 93.7624 127.035C93.8326 127.588 93.8711 128.486 93.8711 129.73V136.085C93.6045 136.511 93.3029 136.833 92.9731 137.046C92.6434 137.259 92.3172 137.368 91.9945 137.368C91.4929 137.368 91.0719 137.14 90.7212 136.686C90.3739 136.232 90.1985 135.641 90.1985 134.91V125.032H82.2428V125.406C82.7059 125.476 83.0426 125.63 83.2461 125.861C83.453 126.091 83.5898 126.483 83.66 127.035C83.7301 127.588 83.7687 128.486 83.7687 129.73V135.284C83.7687 136.246 84.0143 137.067 84.5054 137.752C84.9964 138.437 85.6384 138.958 86.4346 139.314C87.2309 139.671 88.0833 139.849 88.9918 139.849C89.974 139.849 90.9211 139.605 91.8331 139.115C92.7451 138.626 93.4327 137.955 93.8957 137.098C93.9834 137.811 94.271 138.385 94.7516 138.822C95.2322 139.259 95.8846 139.475 96.7089 139.475H101.827V139.101C101.252 139.045 100.855 138.752 100.634 138.22ZM111.161 137.832C110.954 137.326 110.852 136.752 110.852 136.109V120.733H102.897V121.079C103.36 121.149 103.696 121.303 103.9 121.534C104.107 121.764 104.244 122.156 104.314 122.708C104.384 123.26 104.423 124.159 104.423 125.403V136.109C104.423 136.731 104.321 137.301 104.114 137.818C103.907 138.336 103.5 138.762 102.893 139.101V139.475H112.378V139.101C111.775 138.762 111.368 138.339 111.161 137.832ZM150.252 138.22C150.027 137.686 149.919 136.983 149.919 136.113V125.032H141.959V125.406C142.422 125.476 142.759 125.63 142.963 125.861C143.17 126.091 143.306 126.483 143.38 127.035C143.45 127.588 143.489 128.486 143.489 129.73V136.085C143.222 136.511 142.92 136.833 142.591 137.046C142.261 137.259 141.935 137.368 141.612 137.368C141.11 137.368 140.69 137.14 140.339 136.686C139.991 136.232 139.816 135.641 139.816 134.91V125.032H131.857V125.406C132.32 125.476 132.657 125.63 132.86 125.861C133.067 126.091 133.204 126.483 133.274 127.035C133.344 127.588 133.383 128.486 133.383 129.73V135.284C133.383 136.246 133.628 137.067 134.119 137.752C134.611 138.437 135.252 138.958 136.049 139.314C136.845 139.671 137.697 139.849 138.606 139.849C139.588 139.849 140.535 139.605 141.447 139.115C142.359 138.626 143.047 137.955 143.51 137.098C143.597 137.811 143.885 138.385 144.366 138.822C144.846 139.259 145.499 139.475 146.323 139.475H151.441V139.101C150.873 139.045 150.473 138.752 150.252 138.22ZM160.782 137.832C160.575 137.326 160.473 136.752 160.473 136.109V120.733H152.518V121.079C152.981 121.149 153.318 121.303 153.521 121.534C153.728 121.764 153.865 122.156 153.938 122.708C154.009 123.26 154.047 124.159 154.047 125.403V136.109C154.047 136.731 153.945 137.301 153.738 137.818C153.532 138.336 153.125 138.762 152.518 139.101V139.475H162.003V139.101C161.392 138.762 160.986 138.339 160.782 137.832ZM87.715 118.356C86.9994 118.356 86.389 118.611 85.8804 119.118C85.3718 119.625 85.1157 120.226 85.1157 120.922C85.1157 121.635 85.3718 122.243 85.8804 122.75C86.389 123.257 86.9994 123.512 87.715 123.512C88.4306 123.512 89.0374 123.26 89.5355 122.75C90.0371 122.243 90.2862 121.635 90.2862 120.922C90.2862 120.226 90.0371 119.629 89.5355 119.118C89.0339 118.611 88.4271 118.356 87.715 118.356ZM94.5411 119.118C94.0325 119.625 93.7764 120.226 93.7764 120.922C93.7764 121.635 94.0325 122.243 94.5411 122.75C95.0498 123.257 95.6601 123.512 96.3757 123.512C97.0913 123.512 97.6981 123.26 98.1962 122.75C98.6979 122.243 98.9469 121.635 98.9469 120.922C98.9469 120.226 98.6979 119.629 98.1962 119.118C97.6946 118.611 97.0878 118.356 96.3757 118.356C95.6636 118.356 95.0533 118.611 94.5411 119.118ZM145.997 123.508C146.712 123.508 147.319 123.257 147.817 122.746C148.319 122.24 148.568 121.631 148.568 120.918C148.568 120.223 148.319 119.625 147.817 119.115C147.316 118.608 146.709 118.353 145.997 118.353C145.281 118.353 144.671 118.608 144.162 119.115C143.654 119.622 143.398 120.223 143.398 120.918C143.398 121.631 143.654 122.24 144.162 122.746C144.671 123.257 145.281 123.508 145.997 123.508ZM137.333 123.508C138.048 123.508 138.655 123.257 139.153 122.746C139.655 122.24 139.904 121.631 139.904 120.918C139.904 120.223 139.655 119.625 139.153 119.115C138.652 118.608 138.045 118.353 137.333 118.353C136.617 118.353 136.007 118.608 135.498 119.115C134.989 119.622 134.733 120.223 134.733 120.918C134.733 121.631 134.989 122.24 135.498 122.746C136.007 123.257 136.617 123.508 137.333 123.508ZM131.148 131.757C131.148 133.075 130.763 134.344 129.994 135.56C129.226 136.78 128.076 137.78 126.539 138.563C125.003 139.346 123.154 139.737 120.993 139.737C120.636 139.737 120.264 139.692 119.881 139.605C119.496 139.514 118.948 139.374 118.233 139.178C117.822 139.052 117.415 138.944 117.012 138.846C116.609 138.748 116.275 138.699 116.009 138.699C115.725 138.699 115.507 138.759 115.367 138.874C115.223 138.989 115.153 139.189 115.153 139.475H114.616V125.431C114.616 124.187 114.581 123.285 114.507 122.736C114.437 122.184 114.297 121.792 114.094 121.562C113.887 121.331 113.553 121.181 113.09 121.107V120.733H121.046V125.885L123.912 124.976C125.413 124.976 126.711 125.305 127.809 125.966C128.907 126.623 129.738 127.479 130.299 128.528C130.868 129.58 131.148 130.656 131.148 131.757ZM124.852 132.131C124.852 130.601 124.585 129.3 124.049 128.234C123.512 127.168 122.761 126.633 121.797 126.633C121.53 126.633 121.277 126.668 121.046 126.742V139.238C121.849 139.094 122.54 138.668 123.123 137.955C123.701 137.242 124.136 136.371 124.42 135.34C124.708 134.302 124.852 133.236 124.852 132.131ZM81.0467 128.528C81.6079 129.576 81.8921 130.656 81.8921 131.757C81.8921 133.075 81.5062 134.344 80.7415 135.56C79.9733 136.78 78.8227 137.78 77.2863 138.563C75.7499 139.346 73.9013 139.737 71.7405 139.737C71.3827 139.737 71.0109 139.692 70.6286 139.605C70.2427 139.514 69.6955 139.374 68.9799 139.178C68.5695 139.052 68.1626 138.944 67.7592 138.846C67.3558 138.748 67.0226 138.699 66.756 138.699C66.4718 138.699 66.2544 138.759 66.114 138.874C65.9702 138.989 65.9001 139.189 65.9001 139.475H65.3634V125.431C65.3634 124.187 65.3283 123.285 65.2546 122.736C65.181 122.184 65.0442 121.792 64.8372 121.562C64.6303 121.331 64.297 121.181 63.834 121.107V120.733H71.7896V125.885L74.6555 124.976C76.1568 124.976 77.4547 125.305 78.5526 125.966C79.6541 126.623 80.4854 127.479 81.0467 128.528ZM75.5956 132.131C75.5956 130.601 75.329 129.3 74.7923 128.234C74.2556 127.168 73.5049 126.633 72.5403 126.633C72.2737 126.633 72.0212 126.668 71.7896 126.742V139.238C72.5929 139.094 73.284 138.668 73.8662 137.955C74.445 137.242 74.88 136.371 75.1641 135.34C75.4518 134.306 75.5956 133.236 75.5956 132.131Z" fill="#551B57"/>
<path d="M12.379 120.733H18.8368V121.16C17.5494 121.373 16.2901 122.068 15.0589 123.243C13.8277 124.417 12.5053 125.885 11.0951 127.647L16.2656 137.179C16.7111 137.892 17.111 138.381 17.4582 138.647C17.8055 138.912 18.258 139.049 18.8122 139.049V139.475H8.94836V139.049C9.68149 139.049 10.0463 138.755 10.0463 138.168C10.0463 137.902 9.97614 137.626 9.83232 137.34L7.23305 132.533L5.35639 134.858C5.21257 135.036 5.06875 135.34 4.92844 135.767C4.78462 136.193 4.71446 136.613 4.71446 137.022C4.71446 138.196 5.30377 138.874 6.48239 139.049V139.475H0V139.049C0.536691 138.853 1.21369 138.35 2.03451 137.539C2.85534 136.728 3.91118 135.532 5.19503 133.949L6.88227 131.866L2.06258 123.03C1.47678 122.096 0.789251 121.551 0 121.383V120.733H9.37631V121.16C8.64318 121.16 8.27837 121.453 8.27837 122.04C8.27837 122.306 8.34853 122.582 8.49235 122.869L10.7163 126.979C11.5196 125.948 12.1685 125.036 12.6596 124.242C13.1507 123.449 13.3962 122.778 13.3962 122.226C13.3962 121.638 13.056 121.282 12.379 121.156V120.733ZM52.7536 127.245C52.7536 126.549 52.5396 125.959 52.1116 125.469C51.6837 124.98 51.0593 124.735 50.235 124.735C49.358 124.735 48.4846 125.095 47.6112 125.815C46.7342 126.535 46.0291 127.367 45.496 128.311V124.973H37.5403V125.347C38.0033 125.417 38.3401 125.571 38.5435 125.801C38.7505 126.032 38.8873 126.424 38.961 126.976C39.0311 127.528 39.0697 128.426 39.0697 129.671V136.106C39.0697 136.728 38.968 137.298 38.761 137.815C38.5541 138.332 38.1472 138.759 37.5403 139.098V139.472H47.0254V139.098C46.4185 138.759 46.0116 138.336 45.8046 137.829C45.5977 137.322 45.496 136.749 45.496 136.106V129.51C45.8538 128.888 46.2607 128.294 46.7167 127.734C47.1727 127.175 47.5691 126.77 47.9093 126.518C47.8392 126.749 47.8006 126.944 47.8006 127.105C47.8006 127.871 48.0496 128.468 48.5512 128.895C49.0494 129.321 49.6387 129.534 50.3192 129.534C50.9786 129.534 51.5504 129.332 52.0345 128.919C52.5115 128.521 52.7536 127.958 52.7536 127.245ZM62.9472 139.101C62.3403 138.762 61.9334 138.339 61.7265 137.832C61.5195 137.326 61.4178 136.752 61.4178 136.109V124.977H53.4621V125.351C54.0865 125.459 54.4969 125.732 54.6934 126.179C54.8898 126.623 54.988 127.343 54.988 128.343V136.113C54.988 136.735 54.8863 137.305 54.6793 137.822C54.4724 138.339 54.0655 138.766 53.4586 139.105V139.479H62.9437V139.101H62.9472ZM20.0821 137.871C19.6085 137.214 19.3735 136.455 19.3735 135.602C19.3735 134.767 19.6717 133.995 20.2715 133.292C20.8713 132.589 21.7728 132.02 22.976 131.583C24.1827 131.146 25.6594 130.929 27.4098 130.929C27.8939 130.929 28.2587 130.94 28.5078 130.957V127.619C28.5078 126.888 28.3604 126.326 28.0658 125.924C27.7711 125.522 27.4168 125.323 27.0064 125.323C26.596 125.323 26.2382 125.522 25.9331 125.924C25.6279 126.326 25.477 126.881 25.477 127.591C25.477 128.517 25.8173 129.283 26.4943 129.887C25.4385 130.279 24.5299 130.475 23.7617 130.475C22.8848 130.475 22.2078 130.272 21.7272 129.86C21.2431 129.451 21.0046 128.944 21.0046 128.339C21.0046 127.217 21.5588 126.34 22.6673 125.711C23.7758 125.078 25.1228 124.763 26.7118 124.763C28.0693 124.763 29.3777 125.008 30.637 125.497C31.8963 125.987 32.9276 126.721 33.7309 127.699C34.5341 128.678 34.9375 129.88 34.9375 131.303V136.109C34.9375 136.983 35.0498 137.686 35.2708 138.217C35.4953 138.752 35.8916 139.045 36.4634 139.098V139.472H31.3456C30.5774 139.472 29.9565 139.279 29.4829 138.899C29.0094 138.518 28.7112 137.997 28.5849 137.336C28.1921 138.189 27.6168 138.832 26.8556 139.259C26.0979 139.685 25.2596 139.898 24.351 139.898C23.5127 139.898 22.7059 139.723 21.9412 139.377C21.173 139.035 20.5521 138.531 20.0821 137.871ZM25.0245 135.522C25.0245 136.179 25.1894 136.696 25.5191 137.07C25.8489 137.444 26.2382 137.63 26.6837 137.63C27.0415 137.63 27.3818 137.514 27.701 137.284C28.0237 137.053 28.2903 136.724 28.5043 136.294V131.649C27.4344 131.74 26.5855 132.159 25.9576 132.918C25.3367 133.676 25.0245 134.543 25.0245 135.522Z" fill="#551B57"/>
<path d="M28.0595 177.365C27.7403 177.169 27.2211 177.036 26.495 176.97C26.3617 176.956 26.046 176.938 25.5479 176.914C25.2147 176.9 24.9656 176.875 24.8008 176.833C24.5412 176.77 24.4114 176.666 24.4114 176.512C24.4114 176.201 24.885 176.043 25.8285 176.043C26.5231 176.043 27.179 176.211 27.7964 176.543L28.4138 175.827C27.7508 175.39 26.8704 175.173 25.7759 175.173C24.9762 175.173 24.3588 175.299 23.9238 175.554C23.4924 175.809 23.2749 176.159 23.2749 176.603C23.2749 177.04 23.4924 177.358 23.9238 177.564C24.3272 177.76 24.9797 177.878 25.8812 177.917C26.481 177.941 26.8563 177.969 27.0072 178.004C27.2808 178.06 27.4141 178.179 27.4141 178.357C27.4141 178.543 27.2913 178.693 27.0493 178.808C26.7932 178.924 26.4459 178.98 26.0039 178.98C25.1831 178.98 24.3939 178.749 23.6397 178.287L23.0469 179.014C23.8607 179.574 24.8288 179.853 25.9548 179.853C26.8002 179.853 27.4491 179.717 27.8981 179.448C28.3471 179.179 28.5716 178.798 28.5716 178.312C28.5716 177.885 28.4033 177.571 28.0595 177.365Z" fill="#A154A1"/>
<path d="M33.6325 178.102C33.6325 178.378 33.4922 178.599 33.2116 178.763C32.9169 178.934 32.517 179.022 32.0119 179.022C31.5033 179.022 31.1069 178.938 30.8193 178.77C30.5316 178.602 30.3878 178.378 30.3878 178.099V175.281H29.2969V178.242C29.2969 178.724 29.5389 179.112 30.0195 179.413C30.5176 179.721 31.1806 179.874 32.0049 179.874C32.8292 179.874 33.4922 179.721 33.9903 179.413C34.4744 179.112 34.7129 178.721 34.7129 178.242V175.281H33.622V178.102H33.6325Z" fill="#A154A1"/>
<path d="M40.3407 177.365C40.0215 177.169 39.5024 177.036 38.7763 176.97C38.643 176.956 38.3273 176.938 37.8292 176.914C37.4959 176.9 37.2469 176.875 37.082 176.833C36.8224 176.77 36.6927 176.666 36.6927 176.512C36.6927 176.201 37.1662 176.043 38.1098 176.043C38.8043 176.043 39.4603 176.211 40.0777 176.543L40.695 175.827C40.0321 175.39 39.1516 175.173 38.0572 175.173C37.2574 175.173 36.64 175.299 36.2051 175.554C35.7736 175.809 35.5561 176.159 35.5561 176.603C35.5561 177.04 35.7736 177.358 36.2051 177.564C36.6085 177.76 37.2609 177.878 38.1624 177.917C38.7622 177.941 39.1376 177.969 39.2884 178.004C39.562 178.06 39.6953 178.179 39.6953 178.357C39.6953 178.543 39.5725 178.693 39.3305 178.808C39.0744 178.924 38.7272 178.98 38.2852 178.98C37.4644 178.98 36.6751 178.749 35.9209 178.287L35.3281 179.014C36.1419 179.574 37.1101 179.853 38.2361 179.853C39.0815 179.853 39.7304 179.717 40.1794 179.448C40.6284 179.179 40.8529 178.798 40.8529 178.312C40.8529 177.885 40.6845 177.571 40.3407 177.365Z" fill="#A154A1"/>
<path d="M43.5322 175.285L41.1504 179.748H42.2518L42.764 178.787H45.6404L46.1525 179.748H47.2539L44.8757 175.285H43.5322ZM43.2165 177.931L44.1951 176.096L45.1773 177.931H43.2165Z" fill="#A154A1"/>
<path d="M47.9941 179.752H48.5273V179.948C48.5273 180.098 48.3835 180.175 48.0924 180.175H48.0257V180.685H48.2853C48.85 180.685 49.1342 180.437 49.1342 179.941V178.892H47.9941V179.752Z" fill="#A154A1"/>
<path d="M53.9931 175.285L51.6113 179.748H52.7128L53.2249 178.787H56.1013L56.6134 179.748H57.7149L55.3366 175.285H53.9931ZM53.6739 177.931L54.6526 176.096L55.6348 177.931H53.6739Z" fill="#A154A1"/>
<path d="M59.4792 178.871L63.0852 176.124V175.285H58.0971V176.145H61.6365L58.041 178.892V179.752H63.2501V178.892H59.4827L59.4792 178.871Z" fill="#A154A1"/>
<path d="M68.9317 175.897C68.3283 175.4 67.5741 175.152 66.6656 175.152C65.4905 175.152 64.6206 175.505 64.0523 176.211L65.1853 176.606C65.5572 176.215 66.0518 176.019 66.6691 176.019C67.2479 176.019 67.718 176.162 68.0863 176.445C68.3669 176.662 68.5388 176.917 68.6054 177.218H66.8936H64.7223H63.5156V177.477C63.5156 178.162 63.7822 178.721 64.3189 179.151C64.9258 179.64 65.708 179.881 66.6656 179.881C67.5847 179.881 68.3423 179.633 68.9352 179.14C69.4508 178.714 69.7104 178.169 69.7104 177.511C69.7104 176.861 69.4508 176.323 68.9317 175.897ZM67.9845 178.647C67.6162 178.889 67.1778 179.011 66.6656 179.011C66.2201 179.011 65.8202 178.924 65.466 178.745C65.1222 178.578 64.8766 178.354 64.7223 178.074H66.8936H68.5142C68.409 178.294 68.2301 178.483 67.9845 178.647Z" fill="#A154A1"/>
<path d="M75.7271 176.746C75.7271 176.309 75.5727 175.956 75.2641 175.687C74.9554 175.418 74.545 175.281 74.0398 175.281H70.3672V179.745H71.4581V178.165H73.5172L74.6151 179.745H75.8464L74.7063 178.085C75.3868 177.907 75.7271 177.459 75.7271 176.746ZM74.4573 177.155C74.331 177.263 74.1486 177.316 73.9206 177.316H71.4581V176.145H73.9136C74.1416 176.145 74.3205 176.197 74.4503 176.302C74.5835 176.407 74.6467 176.547 74.6467 176.718C74.6502 176.903 74.5835 177.047 74.4573 177.155Z" fill="#A154A1"/>
<path d="M81.5504 177.431C81.8555 177.218 82.0099 176.931 82.0099 176.575C82.0099 176.292 81.9082 176.04 81.7082 175.816C81.3855 175.463 80.9611 175.285 80.4279 175.285H76.6465V179.748H80.5506C81.0663 179.748 81.4802 179.626 81.7959 179.385C82.0976 179.151 82.2484 178.843 82.2484 178.466C82.2414 178.032 82.0099 177.686 81.5504 177.431ZM77.7304 176.145H80.4103C80.5542 176.145 80.6734 176.183 80.7611 176.264C80.8523 176.344 80.8979 176.449 80.8979 176.575C80.8979 176.701 80.8558 176.809 80.7681 176.896C80.6804 176.984 80.5752 177.026 80.4524 177.026H77.7269V176.145H77.7304ZM80.4594 178.892H77.7304V177.882H80.477C80.6804 177.882 80.8383 177.931 80.9575 178.025C81.0768 178.123 81.1329 178.249 81.1329 178.41C81.1364 178.735 80.9084 178.892 80.4594 178.892Z" fill="#A154A1"/>
<path d="M84.9208 175.285L82.5391 179.748H83.6405L84.1526 178.787H87.029L87.5412 179.748H88.6426L86.2643 175.285H84.9208ZM84.6016 177.931L85.5803 176.096L86.5625 177.931H84.6016Z" fill="#A154A1"/>
<path d="M92.7079 175.285L90.8874 177.151L89.0668 175.285H87.6777L90.3401 178.011V179.752H91.4276V178.011L94.09 175.285H92.7079Z" fill="#A154A1"/>
<path d="M95.4019 176.428C95.7492 176.148 96.1982 176.009 96.7524 176.009C97.5066 176.009 98.159 176.281 98.7097 176.823L99.6989 176.47C98.9833 175.589 98.0327 175.149 96.8401 175.149C95.9246 175.149 95.1704 175.393 94.574 175.883C94.0584 176.306 93.7988 176.847 93.7988 177.505C93.7988 177.879 93.8865 178.225 94.0654 178.543C94.2443 178.861 94.4828 179.112 94.7845 179.298C95.4089 179.679 96.1105 179.871 96.8892 179.871C97.475 179.871 97.9871 179.777 98.4256 179.584C98.8641 179.392 99.271 179.088 99.6428 178.668L98.7203 178.176C98.2046 178.735 97.5767 179.015 96.8401 179.015C96.2508 179.015 95.7772 178.875 95.4194 178.595C95.0616 178.315 94.8827 177.952 94.8827 177.505C94.8827 177.068 95.0546 176.711 95.4019 176.428Z" fill="#A154A1"/>
<path d="M102.21 175.285L99.8281 179.748H100.93L101.442 178.787H104.318L104.83 179.748H105.932L103.553 175.285H102.21ZM101.894 177.931L102.873 176.096L103.855 177.931H101.894Z" fill="#A154A1"/>
<path d="M110.932 175.285V178.48H110.911L107.873 175.285H106.6V179.752H107.691V176.564H107.708L110.746 179.752H112.023V175.285H110.932Z" fill="#A154A1"/>
<path d="M26.285 180.213H25.4607L25.3379 181H25.9097L26.285 180.213Z" fill="#A154A1"/>
<path d="M38.5658 180.213H37.7415L37.6152 181H38.1905L38.5658 180.213Z" fill="#A154A1"/>
<path d="M118.013 178.871H121.689V179.749H116.771C116.828 178.557 117.466 177.77 118.69 177.389C119.129 177.267 119.571 177.145 120.009 177.022C120.332 176.914 120.49 176.767 120.49 176.585C120.49 176.197 120.121 176.002 119.388 176.002C118.743 176.002 118.143 176.222 117.589 176.659L116.922 175.995C117.726 175.407 118.55 175.114 119.399 175.114C120.044 175.114 120.57 175.254 120.97 175.537C121.37 175.82 121.574 176.18 121.574 176.62C121.574 176.97 121.458 177.246 121.23 177.445C120.998 177.644 120.634 177.812 120.132 177.942C119.406 178.13 118.999 178.242 118.908 178.27C118.511 178.417 118.213 178.616 118.013 178.871ZM127.2 176.141C127.505 176.547 127.656 176.994 127.656 177.484C127.656 177.976 127.505 178.424 127.207 178.826C126.965 179.151 126.663 179.403 126.302 179.577C125.941 179.756 125.548 179.843 125.127 179.843C124.254 179.843 123.559 179.5 123.043 178.819C122.742 178.424 122.594 177.976 122.594 177.484C122.594 176.994 122.745 176.55 123.043 176.148C123.289 175.82 123.591 175.565 123.952 175.386C124.313 175.208 124.703 175.117 125.12 175.117C125.537 175.117 125.927 175.208 126.288 175.386C126.653 175.565 126.958 175.816 127.2 176.141ZM126.646 177.48C126.646 177.047 126.506 176.69 126.221 176.411C125.937 176.131 125.576 175.991 125.131 175.991C124.682 175.991 124.317 176.131 124.033 176.407C123.748 176.683 123.608 177.04 123.608 177.48C123.608 177.91 123.748 178.263 124.033 178.536C124.317 178.808 124.678 178.948 125.124 178.948C125.573 178.948 125.937 178.812 126.221 178.532C126.502 178.26 126.646 177.907 126.646 177.48ZM130.255 178.274C130.343 178.246 130.754 178.134 131.48 177.945C131.981 177.816 132.35 177.648 132.578 177.449C132.809 177.249 132.921 176.973 132.921 176.624C132.921 176.187 132.721 175.823 132.318 175.54C131.918 175.257 131.392 175.117 130.747 175.117C129.898 175.117 129.07 175.411 128.27 175.998L128.936 176.662C129.491 176.225 130.091 176.005 130.736 176.005C131.473 176.005 131.837 176.197 131.837 176.589C131.837 176.771 131.676 176.914 131.357 177.026C130.918 177.148 130.476 177.27 130.038 177.393C128.814 177.774 128.172 178.56 128.119 179.752H133.037V178.875H129.361C129.564 178.616 129.863 178.417 130.255 178.274ZM136.085 178.274C136.173 178.246 136.583 178.134 137.31 177.945C137.811 177.816 138.18 177.648 138.408 177.449C138.639 177.249 138.751 176.973 138.751 176.624C138.751 176.187 138.551 175.823 138.148 175.54C137.748 175.257 137.222 175.117 136.576 175.117C135.728 175.117 134.9 175.411 134.1 175.998L134.766 176.662C135.321 176.225 135.921 176.005 136.566 176.005C137.303 176.005 137.667 176.197 137.667 176.589C137.667 176.771 137.506 176.914 137.187 177.026C136.748 177.148 136.306 177.27 135.868 177.393C134.644 177.774 134.002 178.56 133.949 179.752H138.867V178.875H135.191C135.394 178.616 135.693 178.417 136.085 178.274Z" fill="#A154A1"/>
<path d="M113.834 30.913C112.936 30.6438 112.038 30.3817 111.136 30.1265C111.214 27.3617 110.702 24.5549 109.47 21.9474C108.8 20.5947 107.948 19.2734 106.794 18.1969C105.657 17.1063 104.296 16.243 102.83 15.6348C99.8484 14.5477 96.7195 14.303 93.6151 15.0091C92.0752 15.3726 90.5949 16.0088 89.2584 16.8477C87.9255 17.6935 86.7504 18.7491 85.7401 19.9061C83.7231 22.241 82.3691 24.9464 81.3659 27.6903C80.3662 30.4446 79.7278 33.2688 79.3068 36.1036C78.4966 41.773 78.4545 47.481 79.1174 53.091C79.6962 47.4775 80.3767 41.9233 81.6781 36.558C82.32 33.8805 83.1023 31.2485 84.1441 28.7668C85.1789 26.2886 86.4733 23.9397 88.1675 22.0313C89.8513 20.1263 91.977 18.7107 94.3798 18.113C96.7546 17.4943 99.4766 17.6236 101.82 18.3367C102.981 18.7491 104.065 19.3468 105.029 20.1298C105.998 20.9093 106.801 21.9194 107.478 23.0205C108.849 25.226 109.625 27.8895 109.909 30.5879L109.919 30.6823C109.944 30.9304 110.137 31.1367 110.396 31.1716C111.494 31.3219 112.596 31.4443 113.697 31.5701C114.799 31.6994 115.904 31.8078 117.012 31.9057C115.956 31.5596 114.897 31.2241 113.834 30.913Z" fill="#8DC63F"/>
<path d="M134.345 91.2882C134.18 89.925 133.861 88.5688 133.373 87.2756C132.893 85.9753 132.219 84.7589 131.444 83.6334C129.883 81.3824 127.905 79.5368 125.814 77.9884C121.612 74.8915 117.037 72.6964 112.856 70.1448C111.807 69.5122 110.79 68.8515 109.836 68.1315C108.871 67.4219 107.984 66.646 107.216 65.7931C106.444 64.9437 105.795 64.014 105.381 62.9933C104.957 61.9762 104.757 60.8821 104.753 59.7531V59.6867C104.753 59.5749 104.732 59.463 104.69 59.3547C104.504 58.8583 103.946 58.6067 103.448 58.7954C101.67 59.463 99.8493 60.0537 97.9761 60.4732C96.1065 60.8996 94.2053 61.2247 92.283 61.4099C90.3607 61.5812 88.4209 61.6791 86.4776 61.6371C84.5343 61.5987 82.591 61.4554 80.6582 61.1233C82.5349 61.6791 84.4782 62.0426 86.4355 62.2593C88.3929 62.4725 90.3677 62.5879 92.3496 62.5459C94.328 62.5075 96.3099 62.3222 98.2813 62.0251C99.8107 61.7909 101.319 61.4274 102.813 61.001C102.869 61.9377 103.034 62.871 103.347 63.7658C103.789 65.101 104.567 66.2755 105.423 67.3171C106.286 68.3622 107.258 69.278 108.275 70.0994C109.285 70.9348 110.341 71.6793 111.407 72.3888C113.533 73.8184 115.726 75.0558 117.844 76.3526C119.963 77.6459 122.04 78.9601 123.927 80.4386C125.821 81.9067 127.54 83.532 128.81 85.416C130.104 87.286 130.869 89.4182 131.114 91.6552C131.251 92.7738 131.209 93.9167 131.128 95.0632C131.062 95.6364 131.012 96.2132 130.897 96.7864C130.812 97.3632 130.672 97.9364 130.539 98.5096C130.037 100.582 129.273 102.624 128.378 104.623C124.169 105.86 119.633 106.43 115.21 106.098C110.559 105.728 105.967 104.434 101.922 102.036C99.8984 100.855 97.9937 99.4429 96.2573 97.8315C94.5245 96.2167 92.9319 94.4306 91.4867 92.5221C88.6279 88.6737 86.3268 84.3849 84.3905 79.9213C84.7413 81.0853 85.1482 82.2318 85.541 83.3887C85.9725 84.5282 86.411 85.6712 86.9161 86.7862C87.8983 89.0267 89.0453 91.2078 90.3713 93.2911C93.0161 97.454 96.5029 101.187 100.73 103.955C102.845 105.333 105.146 106.437 107.542 107.272C109.938 108.111 112.435 108.667 114.961 108.915C117.486 109.163 120.03 109.163 122.548 108.912C125.074 108.664 127.554 108.206 130.02 107.419C130.409 107.293 130.753 107.01 130.942 106.612L130.949 106.594C132.051 104.27 133.015 101.848 133.661 99.2891C134.313 96.734 134.675 94.0251 134.345 91.2882Z" fill="#551B57"/>
<path d="M79.1872 67.2752C78.9241 67.3731 78.6645 67.4605 78.4119 67.5479C78.0717 67.6632 77.749 67.7716 77.4648 67.8904C77.0579 68.0687 76.6545 68.3168 76.2301 68.6454C75.6057 69.1487 75.0094 69.7604 74.3815 70.4036C74.15 70.6412 73.915 70.8824 73.6729 71.1236C73.2134 71.592 72.7258 72.0464 72.2207 72.4833C72.2944 72.4903 72.3715 72.4938 72.4452 72.5008C73.01 72.5427 73.5747 72.5637 74.1254 72.5637C75.5496 72.5637 76.9317 72.4239 78.2295 72.1512C79.3275 71.9101 80.2149 71.6584 81.0182 71.3543L81.0603 71.3403L81.1024 71.3263C81.383 71.2424 81.6777 71.1026 81.9934 70.9558C82.1267 70.8929 82.2565 70.8335 82.3898 70.7741C82.481 70.7321 82.5722 70.6937 82.6669 70.6552C82.8002 70.5993 82.9265 70.5434 83.0387 70.4909L83.7017 70.1274L83.8455 70.0505C84.2454 69.8338 84.6207 69.6276 84.954 69.3969L84.975 69.3829C85.1399 69.2711 85.3082 69.1662 85.4766 69.0579C85.7537 68.8796 86.0168 68.7118 86.2553 68.537C86.4834 68.3623 86.7114 68.1875 86.9429 68.0092C87.5602 67.5374 88.1952 67.0515 88.809 66.5552C84.954 67.852 81.4216 68.6244 79.1872 67.2752Z" fill="url(#paint0_linear_378_2069)"/>
<path d="M85.1221 72.4519C86.0481 71.8018 86.8304 70.9769 87.6091 70.1869C88.3317 69.3271 89.0333 68.4847 89.6436 67.5654C88.7842 68.2575 87.9038 68.9181 87.0549 69.5717C86.6234 69.8933 86.1569 70.1659 85.7149 70.4631C85.2799 70.7671 84.8064 71.0153 84.3434 71.2705L83.6523 71.6515C83.4173 71.7668 83.1682 71.8647 82.9297 71.9696C82.4527 72.1828 81.9896 72.4274 81.488 72.5777C80.5129 72.9448 79.5096 73.2104 78.5029 73.4306C76.4824 73.857 74.4093 73.9549 72.3502 73.8046C71.2102 73.7207 70.0702 73.546 68.9477 73.3013C69.2283 73.123 69.5054 72.9343 69.7755 72.742C70.8489 71.9661 71.8451 71.1027 72.7396 70.1939C73.6446 69.2921 74.476 68.3693 75.409 67.6178C75.8826 67.2508 76.3842 66.9258 76.9454 66.6811C77.4997 66.4504 78.1311 66.2651 78.7239 66.0449C78.082 66.0834 77.4611 66.0799 76.8016 66.1917C76.1492 66.3036 75.5037 66.5273 74.9144 66.8384C73.7183 67.4466 72.7151 68.2785 71.7118 69.0125C70.7086 69.757 69.7334 70.4735 68.6811 71.0573C67.6428 71.6585 66.5589 72.1618 65.4434 72.5882C65.1628 72.6966 64.9208 72.9168 64.798 73.2174C64.5595 73.7941 64.8401 74.4548 65.4189 74.6924L65.475 74.7169C66.5449 75.1503 67.6498 75.4649 68.7653 75.7375C69.8913 75.9612 71.0243 76.171 72.1749 76.2234C74.4689 76.3842 76.8051 76.1605 79.0256 75.5278C80.134 75.2098 81.2109 74.7903 82.2282 74.266C82.7543 74.0388 83.2314 73.7207 83.7225 73.4306C83.961 73.2768 84.2066 73.1335 84.4416 72.9692L85.1221 72.4519Z" fill="#551B57"/>
<path d="M111.662 60.6655C111.967 60.6969 112.272 60.7284 112.571 60.7634C113.581 60.8752 114.535 60.9801 115.447 60.9801C115.538 60.9801 115.629 60.9801 115.721 60.9766H115.738C116.994 60.9626 118.211 60.7948 119.362 60.4802C119.916 60.3264 120.463 60.1377 121.007 59.914C120.596 59.7742 120.211 59.6518 119.86 59.5959C119.705 59.5749 119.558 59.5645 119.418 59.5645C119.306 59.5645 119.193 59.5714 119.081 59.5854C118.688 59.6379 118.271 59.6798 117.762 59.7182L111.662 60.6655Z" fill="url(#paint1_linear_378_2069)"/>
<path d="M120.158 63.8567C121.684 63.619 123.168 63.1017 124.519 62.3642C125.88 61.6372 127.097 60.6829 128.16 59.5679L128.216 59.5085C128.426 59.2848 128.546 58.9737 128.517 58.6416C128.465 58.023 127.918 57.5616 127.297 57.614C126.543 57.6769 125.785 57.6944 125.017 57.656C124.245 57.621 123.466 57.5301 122.645 57.4358C121.832 57.3449 120.948 57.2365 120.036 57.3763C119.583 57.4357 119.141 57.593 118.759 57.7958C118.391 57.988 118.026 58.1942 117.661 58.411C118.082 58.3795 118.499 58.341 118.913 58.2851C119.31 58.2362 119.685 58.2502 120.053 58.3026C120.786 58.4179 121.516 58.715 122.298 58.9737C122.975 59.2079 123.687 59.4141 124.424 59.5749C122.972 60.5361 121.386 61.2841 119.713 61.7455C118.443 62.0951 117.121 62.2733 115.756 62.2873C114.388 62.3223 112.999 62.1195 111.529 61.9692C112.761 62.7312 114.122 63.3604 115.598 63.6994C117.068 64.042 118.633 64.0944 120.158 63.8567Z" fill="#551B57"/>
<path d="M110.219 32.4685C109.363 32.3531 108.703 31.6715 108.612 30.8186L108.602 30.7243C108.317 28.0398 107.542 25.6141 106.36 23.7091C105.68 22.6081 104.978 21.7727 104.203 21.1505C103.368 20.4759 102.428 19.9481 101.407 19.5846C100.204 19.2211 98.8955 19.0288 97.6116 19.0288C96.5909 19.0288 95.6157 19.1477 94.7142 19.3818C92.6551 19.8957 90.7399 21.1085 89.1579 22.8982C87.7162 24.5165 86.4779 26.5997 85.3624 29.2702C84.4574 31.4303 83.6717 33.9155 82.9631 36.8656C82.1739 40.1163 81.6126 43.4124 81.1426 47.0056C85.8676 29.3925 89.9611 19.8467 98.5973 21.493C101.572 22.0593 106.122 23.7196 107.339 31.2695C107.668 32.8844 108.738 32.6397 110.219 32.4685Z" fill="url(#paint2_linear_378_2069)"/>
<path d="M96.6432 34.2056C96.3591 36.1804 96.2363 37.9351 96.2609 39.5639C96.3521 41.4934 96.6152 43.1467 97.0677 44.6112C97.5973 46.2645 98.334 47.7081 99.2495 48.8931C99.716 49.5082 100.242 50.0745 100.817 50.5848C101.102 50.8295 101.372 51.0392 101.575 51.165L102.736 51.8571C97.4605 47.3201 96.1556 41.1369 96.6432 34.2056Z" fill="url(#paint3_linear_378_2069)"/>
<path d="M102.061 52.9861L100.89 52.2871C100.595 52.1053 100.255 51.8362 99.9462 51.567C99.3218 51.0148 98.7325 50.3856 98.2099 49.6935C97.147 48.3198 96.3612 46.7085 95.8105 44.9958C95.2809 43.2725 95.0318 41.4515 94.9441 39.6024C94.916 37.7534 95.0739 35.8834 95.3405 34.0168C94.8108 35.8204 94.3758 37.666 94.1303 39.5675C93.9444 41.4689 93.9198 43.4159 94.2215 45.3628C94.5442 47.2992 95.1511 49.2356 96.1508 51.0113C96.6419 51.9026 97.2277 52.752 97.9047 53.5524C98.2554 53.9544 98.6027 54.3319 99.0552 54.7198L100.192 55.6426C100.251 55.6881 100.322 55.7405 100.388 55.7789C101.163 56.2403 102.167 55.9887 102.63 55.2162C103.089 54.4472 102.837 53.4475 102.061 52.9861Z" fill="#8DC63F"/>
<path d="M51.821 30.8395L51.7894 30.808C50.9195 29.8957 50.0215 28.9485 49.2287 27.8789C48.3483 26.6695 47.6572 25.5405 47.1135 24.4185C45.9314 21.9962 45.1843 19.3642 44.8896 16.5959C44.7388 15.2222 44.6897 13.8066 44.7458 12.363C44.3459 13.2439 43.9881 14.1562 43.6759 15.0929C42.0869 19.7627 41.687 24.8415 42.5183 29.7804C43.3321 34.6564 45.3526 39.3192 48.3658 43.262C51.2457 47.044 55.192 50.368 59.7836 52.8707C46.3944 43.2026 44.3915 29.4169 51.821 30.8395Z" fill="url(#paint4_linear_378_2069)"/>
<path d="M74.6739 38.8895C74.5371 36.0862 73.9162 33.4158 72.8323 31.0214L72.8253 31.004C72.0465 29.2108 71.0082 27.4876 69.7419 25.8833C68.5107 24.3104 67.0936 22.8598 65.5361 21.57L65.3186 21.3952C64.9959 21.1331 64.6942 20.8849 64.382 20.6717L64.1751 20.5214C63.8208 20.2627 63.4876 20.0215 63.1508 19.8118L63.1122 19.7874C62.6281 19.4693 62.2388 19.2281 61.8775 19.0289L60.4603 18.2249C58.3346 17.0505 56.4404 15.6034 54.8339 13.9291C53.2378 12.2898 51.8242 10.3953 50.635 8.30511C50.635 8.30511 50.5614 8.1688 50.5298 8.10938C50.3755 8.58125 50.2281 9.06361 50.0913 9.55995C49.4564 11.8669 49.1372 14.1563 49.1407 16.3619C49.1337 18.6933 49.5196 20.9548 50.2843 23.087C50.635 24.0762 51.1226 25.1003 51.7645 26.2188C52.1364 26.8515 52.5608 27.4632 53.0168 28.0818C48.8601 14.2402 71.3134 19.4868 74.6739 38.8895Z" fill="url(#paint5_linear_378_2069)"/>
<path d="M48.3825 85.8076C48.1615 85.9859 47.944 86.1676 47.723 86.3424L47.688 86.3704C47.5056 86.5067 47.3232 86.6884 47.1513 86.8632L46.4778 87.5308C46.3866 87.6217 46.2919 87.7161 46.1972 87.8105C45.8779 88.125 45.5728 88.4221 45.3377 88.7367L45.3202 88.7577L44.1732 90.1453L42.9595 91.935L42.7665 92.281L42.3316 93.0745C42.2825 93.1653 42.2263 93.2667 42.1702 93.3646C42.086 93.5149 42.0054 93.6582 41.9352 93.798L41.5809 94.5949C40.6549 96.6537 40.034 98.8488 39.7288 101.124L39.7253 101.149C39.5429 102.341 39.5113 103.554 39.5078 104.48C39.5078 104.581 39.5113 104.679 39.5148 104.777C41.616 103.48 43.9241 102.351 46.4041 101.414C48.3509 100.663 50.3048 100.051 52.2972 99.4395C52.7848 99.2927 53.2688 99.1494 53.7494 99.0061C55.1701 98.5866 56.6398 98.1497 58.0464 97.6778C62.4066 96.2273 65.5777 94.5355 68.0226 92.3474L68.0331 92.3369C57.7588 96.3741 41.9282 98.293 48.3825 85.8076Z" fill="url(#paint6_linear_378_2069)"/>
<path d="M58.7017 58.3481C53.0366 59.0262 47.8241 61.0745 43.6182 64.2658C39.4475 67.3732 36.0625 71.8262 33.821 77.1497C31.7549 82.2669 31.1445 87.821 32.0495 93.2108C32.5091 95.9791 33.3369 98.702 34.491 101.254C34.5716 100.876 34.6558 100.513 34.7505 100.156C35.4135 97.4891 36.4378 94.9655 37.7953 92.6551L38.2934 91.8022L38.3109 91.7777C38.4407 91.5785 38.5705 91.3932 38.6968 91.215C38.7564 91.1276 38.8196 91.0402 38.8792 90.9563L39.4369 90.1629L39.7491 89.7225L40.0964 89.3135L41.3767 87.8105L42.7693 86.4578C43.1727 86.0349 43.6042 85.6958 44.0216 85.3638C44.1198 85.2869 44.2216 85.2065 44.3198 85.1296L45.0564 84.5423C45.3195 84.3256 45.6106 84.0984 45.9509 83.8922C46.1789 83.7454 46.4069 83.5986 46.6349 83.4518C35.7012 78.7855 43.5025 61.5429 58.7017 58.3481Z" fill="url(#paint7_linear_378_2069)"/>
<path d="M76.2624 38.1554C76.2624 37.6136 76.2729 37.0718 76.1992 36.5335C76.0764 34.3629 75.5152 32.2308 74.768 30.186C74.0069 28.1377 72.9686 26.1838 71.6812 24.4047C70.4079 22.6185 68.9346 20.9687 67.3035 19.4902C66.8931 19.1232 66.4862 18.7492 66.0477 18.4136C65.6162 18.0676 65.1883 17.718 64.7288 17.4069C64.2833 17.0819 63.8273 16.7638 63.3432 16.4737L61.9681 15.6278C60.1827 14.5582 58.5656 13.251 57.1905 11.7095C55.805 10.1786 54.6334 8.46233 53.6757 6.63426C53.2127 5.71149 52.7742 4.77473 52.4129 3.81351C52.1744 3.19134 51.9534 2.53421 51.771 1.89456C51.785 1.566 51.7044 1.24442 51.5325 0.96829C51.529 0.954308 51.5255 0.940327 51.522 0.926346V0.919355C51.4869 0.765559 51.4202 0.611764 51.3185 0.475445C50.9327 -0.0453633 50.196 -0.157215 49.6734 0.227274C49.6453 0.248247 49.6172 0.272714 49.5892 0.293686C49.2594 0.412528 48.9683 0.639726 48.7719 0.950813C44.6432 4.28888 41.6055 8.83983 39.8235 13.7788C37.9258 19.0987 37.4031 24.88 38.2485 30.4656C38.6694 33.2584 39.4306 36.0092 40.5356 38.6203C41.644 41.2278 43.0822 43.6955 44.787 45.957C47.3302 49.3335 50.4556 52.2207 53.9213 54.5975C49.2384 55.7195 44.7554 57.7643 40.9179 60.7074C38.4204 62.6089 36.1965 64.8634 34.3479 67.3801C32.4677 69.8862 31.0155 72.6545 29.8298 75.5382C27.5778 81.358 26.9464 87.7964 28.0935 93.8993C29.2721 99.9882 31.9731 105.752 36.0386 110.443L36.0561 110.464L36.0737 110.485C36.4911 110.939 37.1962 110.967 37.6522 110.551C40.5321 107.919 43.9241 105.871 47.5897 104.34C51.2484 102.785 55.1385 101.656 58.9514 100.184C60.8562 99.4464 62.7434 98.6145 64.5323 97.5834C66.3178 96.5558 67.9875 95.3114 69.4432 93.8609C70.8955 92.4103 72.1723 90.7815 73.1474 88.9918C73.4211 88.5619 73.6315 88.097 73.856 87.6426C74.0735 87.1847 74.3226 86.7408 74.4979 86.2655C74.8838 85.3287 75.2591 84.392 75.5924 83.4377C74.0314 87.1498 71.9302 90.6871 68.9241 93.3121C65.9495 95.9721 62.2803 97.6498 58.4884 98.9082C56.5907 99.5443 54.6509 100.097 52.7076 100.68C50.7678 101.275 48.8139 101.883 46.8917 102.627C43.9311 103.746 41.0407 105.214 38.4204 107.077C38.3713 106.762 38.3292 106.465 38.3046 106.203C38.2485 105.644 38.224 105.056 38.2169 104.473C38.224 103.302 38.2696 102.113 38.452 100.939C38.7712 98.5831 39.4201 96.2552 40.4058 94.0566L40.7741 93.2282C40.9109 92.9591 41.0617 92.7004 41.2056 92.4313L41.644 91.6343L41.865 91.2358L42.1211 90.8584L43.1454 89.3449L44.3135 87.9292C44.6853 87.4364 45.1413 87.0239 45.5763 86.587L46.2322 85.9334C46.4497 85.7132 46.6707 85.4965 46.9162 85.3112C47.8774 84.5353 48.828 83.7243 49.8523 83.0078C48.7578 83.609 47.7265 84.3116 46.6672 84.9931C46.3971 85.1539 46.148 85.3497 45.906 85.5489L45.1659 86.1361C44.6748 86.5311 44.1626 86.9086 43.7242 87.3665L42.3596 88.6947L41.1214 90.1488L40.8127 90.5158L40.5356 90.9073L39.9849 91.6937C39.8025 91.9559 39.6095 92.2145 39.4376 92.4837L38.9536 93.3156C37.6522 95.5316 36.677 97.9539 36.0491 100.478C35.7159 101.736 35.5159 103.029 35.3686 104.336C35.33 104.721 35.302 105.105 35.2809 105.493C33.0114 101.809 31.482 97.6638 30.7769 93.4204C29.8263 87.7685 30.4963 81.9207 32.629 76.6427C34.8389 71.3962 38.2871 66.6111 42.8437 63.2136C47.3723 59.7742 52.8725 57.7189 58.5586 57.0373C59.0567 56.9744 59.5302 56.6808 59.7898 56.2089C60.2213 55.4259 59.9336 54.4402 59.1444 54.0103C54.5597 51.5111 50.4451 48.1626 47.3126 44.0451C44.1767 39.938 42.065 35.0865 41.2161 29.9867C40.3602 24.894 40.7566 19.5706 42.4228 14.6701C43.4365 11.6291 44.9554 8.73497 46.9338 6.22181C46.7373 7.04322 46.562 7.86463 46.4287 8.69303C46.0147 11.2586 45.9095 13.8766 46.1936 16.4492C46.4672 19.0218 47.1723 21.542 48.2913 23.8384C48.849 24.9884 49.5366 26.0684 50.2802 27.0891C51.0344 28.1062 51.9078 29.022 52.7672 29.9273C52.006 28.9311 51.2448 27.935 50.617 26.8619C49.9996 25.7853 49.4524 24.6773 49.0385 23.5203C48.2071 21.2099 47.8107 18.7771 47.8177 16.3548C47.8142 13.9326 48.1755 11.5243 48.814 9.20335C49.1367 8.04289 49.5155 6.89991 49.968 5.79538C50.1013 5.46681 50.2521 5.15573 50.396 4.83765C50.7958 5.80237 51.2659 6.73563 51.771 7.64791C52.8795 9.59133 54.2159 11.4054 55.7804 13.0133C57.3309 14.6281 59.1549 15.9983 61.0982 17.0714L62.5048 17.8683C62.9573 18.1165 63.3958 18.3926 63.8343 18.6828C64.2798 18.9554 64.7007 19.27 65.1251 19.5811C65.5566 19.8782 65.96 20.2207 66.3669 20.5493C67.9875 21.888 69.4713 23.4015 70.7692 25.0618C72.0741 26.7186 73.1825 28.5327 74.0244 30.4726C75.7748 34.335 76.315 38.6972 75.8555 42.972C76.0273 41.9094 76.122 40.8398 76.2238 39.7632C76.2589 39.4941 76.2659 39.225 76.2589 38.9558L76.2624 38.1554Z" fill="#A154A1"/>
<path d="M106.504 70.3056C105.725 69.61 105.034 68.8969 104.417 68.1454C103.301 66.7892 102.547 65.4959 102.112 64.1852C101.944 63.6993 101.807 63.189 101.705 62.6577C101.505 63.2764 101.291 63.8811 101.07 64.4753C102.54 66.7298 104.424 68.6418 106.504 70.3056Z" fill="#551B57"/>
<path d="M129.82 91.8091C129.592 89.7189 128.89 87.8244 127.74 86.1572L127.729 86.1432C127.252 85.4336 126.68 84.7345 126.01 84.032C126.368 84.9862 126.603 85.9964 126.722 87.0555C126.849 88.0901 126.803 89.1841 126.733 90.2118L126.701 90.4949C126.652 90.9528 126.603 91.3862 126.519 91.8056L126.512 91.8371L126.508 91.8721C126.435 92.3614 126.316 92.8612 126.193 93.389L126.168 93.4869C125.765 95.1437 125.154 96.9019 124.309 98.8453C121.047 99.7471 117.753 100.201 114.505 100.201C113.684 100.201 112.86 100.17 112.063 100.111C107.342 99.7366 102.894 98.3874 99.1934 96.1993C97.2185 95.0528 95.3699 93.6896 93.6967 92.1447C92.6444 91.1695 91.6236 90.1069 90.6484 88.9744C91.2658 89.9321 91.9007 90.8549 92.5567 91.7357C93.9808 93.6197 95.5348 95.3499 97.1659 96.8669C98.8181 98.4014 100.649 99.7576 102.599 100.897C106.258 103.071 110.657 104.413 115.326 104.784C116.111 104.843 116.925 104.875 117.739 104.875C120.949 104.875 124.207 104.42 127.431 103.526C128.269 101.593 128.873 99.8415 129.273 98.1951L129.297 98.0973C129.42 97.5695 129.539 97.0731 129.609 96.5873L129.613 96.5558L129.62 96.5244C129.704 96.1084 129.75 95.6785 129.799 95.2241L129.83 94.9445C129.897 93.9238 129.943 92.8368 129.82 91.8091Z" fill="url(#paint8_linear_378_2069)"/>
<path d="M41.6508 157.438C42.1103 157.078 42.3418 156.609 42.3418 156.033C42.3418 155.365 41.9875 154.837 41.2824 154.449C41.749 154.121 41.984 153.687 41.984 153.139C41.984 152.705 41.8297 152.317 41.521 151.978C41.0299 151.436 40.3739 151.167 39.5601 151.167H33.7793V157.994H39.7495C40.5388 157.994 41.1737 157.808 41.6508 157.438ZM35.4455 152.478H39.5461C39.7671 152.478 39.946 152.541 40.0863 152.663C40.2266 152.786 40.2933 152.943 40.2933 153.139C40.2933 153.334 40.2266 153.495 40.0933 153.628C39.96 153.761 39.8022 153.827 39.6127 153.827H35.449V152.478H35.4455ZM35.4455 156.683V155.138H39.6478C39.9565 155.138 40.202 155.211 40.3809 155.358C40.5598 155.505 40.651 155.704 40.651 155.949C40.651 156.438 40.3073 156.683 39.6198 156.683H35.4455ZM51.8268 157.994H44.1343V151.167H51.5638V152.478H45.8005V153.873H49.8029V155.183H45.8005V156.683H51.8304V157.994H51.8268ZM56.0467 155.337L51.9777 151.167H54.1034L56.8851 154.019L59.6667 151.167H61.7784L57.7094 155.337V157.997H56.0432V155.337H56.0467ZM64.1672 157.994H62.501V151.167H64.4478L69.0887 156.05H69.1237V151.164H70.7899V157.99H68.8396L64.1918 153.114H64.1637V157.994H64.1672ZM73.8768 157.074C74.8028 157.822 75.999 158.193 77.4652 158.193C78.8719 158.193 80.0294 157.815 80.9379 157.06C81.7272 156.407 82.1201 155.578 82.1201 154.572C82.1201 153.579 81.7237 152.754 80.9274 152.1C80.0049 151.338 78.8508 150.961 77.4652 150.961C75.6657 150.961 74.3363 151.503 73.4734 152.583L75.2062 153.187C75.7745 152.59 76.5322 152.293 77.4793 152.293C78.3632 152.293 79.0858 152.509 79.6471 152.943C80.075 153.271 80.3346 153.666 80.4398 154.121H77.823H77.4407H72.6455V154.516C72.6455 155.561 73.056 156.414 73.8768 157.074ZM77.4302 155.431H77.8125H80.2785C80.1136 155.767 79.854 156.061 79.4787 156.309C78.9175 156.679 78.244 156.865 77.4617 156.865C76.7812 156.865 76.1674 156.728 75.6272 156.459C75.1045 156.2 74.7257 155.858 74.4906 155.431H77.4302ZM90.7247 157.994H83.7863V151.167H85.4525V156.683H90.7247V157.994ZM91.1316 157.994L94.8814 154.533L91.2578 151.164H93.4677L95.9934 153.53L98.5295 151.164H100.743L97.1194 154.533L100.866 157.994H98.6663L96.0144 155.529L93.345 157.994H91.1316ZM103.658 156.522H108.057L108.839 157.994H110.519L106.885 151.167H104.829L101.185 157.994H102.869L103.658 156.522ZM105.843 152.408L107.348 155.215H104.345L105.843 152.408ZM118.482 157.994H111.543V151.167H113.21V156.683H118.482V157.994ZM127.097 158.521L126.178 157.56C127.483 156.875 128.135 155.875 128.135 154.561C128.135 153.568 127.739 152.74 126.943 152.083C126.034 151.328 124.88 150.95 123.48 150.95C122.091 150.95 120.937 151.328 120.018 152.083C119.222 152.737 118.826 153.565 118.826 154.561C118.826 155.578 119.215 156.414 120.001 157.06C120.902 157.808 122.06 158.182 123.473 158.182C123.877 158.182 124.305 158.137 124.761 158.05L125.641 158.955L127.097 158.521ZM124.315 155.645L122.824 156.061L123.6 156.872H123.466C122.572 156.872 121.856 156.662 121.327 156.239C120.797 155.816 120.53 155.26 120.53 154.565C120.53 153.883 120.797 153.331 121.334 152.901C121.87 152.471 122.582 152.258 123.473 152.258C124.364 152.258 125.076 152.471 125.613 152.894C126.15 153.317 126.416 153.873 126.416 154.558C126.416 155.442 125.995 156.092 125.154 156.508L124.315 155.645Z" fill="#A154A1"/>
<path d="M84.9162 164.684V166.078H88.9186V167.389H84.9162V170.199H83.25V163.373H90.6795V164.684H84.9162ZM93.7733 167.392H97.7757V166.082H93.7733V164.687H99.5366V163.376H92.1072V170.203H99.7997V168.892H93.7698V167.392H93.7733ZM108.215 166.55C107.727 166.249 106.931 166.047 105.819 165.945C105.616 165.928 105.135 165.896 104.37 165.862C103.858 165.844 103.476 165.802 103.227 165.739C102.83 165.645 102.631 165.481 102.631 165.25C102.631 164.771 103.353 164.533 104.798 164.533C105.858 164.533 106.861 164.788 107.808 165.299L108.755 164.205C107.738 163.537 106.394 163.205 104.725 163.205C103.5 163.205 102.557 163.401 101.894 163.789C101.231 164.18 100.901 164.712 100.901 165.393C100.901 166.061 101.231 166.55 101.894 166.865C102.511 167.165 103.507 167.347 104.886 167.403C105.802 167.441 106.373 167.483 106.608 167.536C107.026 167.623 107.233 167.801 107.233 168.074C107.233 168.357 107.047 168.588 106.675 168.763C106.282 168.937 105.752 169.028 105.075 169.028C103.82 169.028 102.616 168.675 101.459 167.973L100.55 169.084C101.792 169.941 103.276 170.367 104.998 170.367C106.293 170.367 107.282 170.161 107.969 169.748C108.657 169.336 109.001 168.756 109.001 168.008C109.001 167.351 108.741 166.865 108.215 166.55ZM109.369 164.684H112.635V170.199H114.301V164.684H117.567V163.373H109.372V164.684H109.369ZM118.805 170.203H120.471V163.373H118.805V170.203ZM129.279 163.373L126.322 168.378L123.365 163.373H121.495L125.547 170.199H127.097L131.149 163.373H129.279ZM136.049 163.373L139.683 170.199H138.003L137.221 168.728H132.822L132.036 170.199H130.353L133.997 163.373H136.049ZM136.509 167.42L135.004 164.614L133.506 167.42H136.509ZM142.37 163.373H140.704V170.199H147.642V168.888H142.37V163.373ZM148.884 163.373V170.199H150.55V163.373H148.884ZM119.64 161.178C119.18 161.178 118.808 161.548 118.808 162.006C118.808 162.464 119.18 162.835 119.64 162.835C120.099 162.835 120.471 162.464 120.471 162.006C120.471 161.552 120.099 161.178 119.64 161.178Z" fill="#A154A1"/>
<path d="M18.7912 164.687H13.0314V166.082H17.0338V167.392H13.0314V170.203H11.3652V163.376H18.7912V164.687Z" fill="#A154A1"/>
<path d="M28.7003 166.777C28.7003 167.794 28.3074 168.63 27.5182 169.276C26.6096 170.024 25.4486 170.398 24.0349 170.398C22.6213 170.398 21.4637 170.024 20.5622 169.276C19.78 168.63 19.3906 167.798 19.3906 166.777C19.3906 165.771 19.7835 164.946 20.5727 164.299C21.4883 163.544 22.6458 163.167 24.0455 163.167C25.4451 163.167 26.6026 163.544 27.5182 164.299C28.3039 164.946 28.7003 165.774 28.7003 166.777ZM26.985 166.777C26.985 166.096 26.7184 165.543 26.1817 165.117C25.645 164.69 24.9329 164.477 24.0419 164.477C23.151 164.477 22.4389 164.69 21.9022 165.117C21.3655 165.543 21.0989 166.096 21.0989 166.777C21.0989 167.473 21.3655 168.029 21.8952 168.451C22.4249 168.874 23.1369 169.084 24.0349 169.084C24.9364 169.084 25.6555 168.871 26.1887 168.451C26.7184 168.032 26.985 167.473 26.985 166.777Z" fill="#A154A1"/>
<path d="M37.4876 170.203H30.5527V163.376H32.2189V168.892H37.4876V170.203Z" fill="#A154A1"/>
<path d="M47.5331 170.203H45.3512L42.1486 166.934L40.3947 168.158V170.203H38.7285V163.376H40.3947V166.553L44.9092 163.376H47.2033L43.3939 166.057L47.5331 170.203Z" fill="#A154A1"/>
<path d="M55.4935 170.203H48.5586V163.376H50.2248V168.892H55.4935V170.203Z" fill="#A154A1"/>
<path d="M65.2862 166.777C65.2862 167.794 64.8933 168.63 64.1041 169.276C63.1956 170.024 62.0345 170.398 60.6209 170.398C59.2072 170.398 58.0497 170.024 57.1482 169.276C56.3659 168.63 55.9766 167.798 55.9766 166.777C55.9766 165.771 56.3694 164.946 57.1587 164.299C58.0742 163.544 59.2318 163.167 60.6314 163.167C62.031 163.167 63.1886 163.544 64.1041 164.299C64.8933 164.946 65.2862 165.774 65.2862 166.777ZM63.5744 166.777C63.5744 166.096 63.3078 165.543 62.7711 165.117C62.2344 164.69 61.5224 164.477 60.6314 164.477C59.7404 164.477 59.0283 164.69 58.4916 165.117C57.955 165.543 57.6884 166.096 57.6884 166.777C57.6884 167.473 57.955 168.029 58.4846 168.451C59.0143 168.874 59.7264 169.084 60.6244 169.084C61.5259 169.084 62.245 168.871 62.7782 168.451C63.3078 168.032 63.5744 167.473 63.5744 166.777Z" fill="#A154A1"/>
<path d="M75.5153 170.203H73.6351L71.9549 167.787H68.8049V170.203H67.1387V163.376H72.7511C73.5264 163.376 74.1507 163.582 74.6243 163.995C75.0978 164.407 75.3329 164.946 75.3329 165.613C75.3329 166.7 74.8137 167.385 73.7719 167.669L75.5153 170.203ZM72.5722 166.477C72.9265 166.477 73.2001 166.396 73.3966 166.232C73.593 166.068 73.6912 165.844 73.6912 165.561C73.6912 165.295 73.5895 165.085 73.3895 164.925C73.1861 164.764 72.9125 164.683 72.5652 164.683H68.8084V166.473H72.5722V166.477Z" fill="#A154A1"/>
</g>
<defs>
<linearGradient id="paint0_linear_378_2069" x1="72.2245" y1="69.5534" x2="88.816" y2="69.5534" gradientUnits="userSpaceOnUse">
<stop offset="8.52446e-08" stop-color="#AA8DAB"/>
<stop offset="1" stop-color="white"/>
</linearGradient>
<linearGradient id="paint1_linear_378_2069" x1="111.663" y1="60.2737" x2="121.009" y2="60.2737" gradientUnits="userSpaceOnUse">
<stop stop-color="white"/>
<stop offset="1" stop-color="#AA8DAB"/>
</linearGradient>
<linearGradient id="paint2_linear_378_2069" x1="81.1428" y1="33.0175" x2="110.219" y2="33.0175" gradientUnits="userSpaceOnUse">
<stop stop-color="white"/>
<stop offset="1" stop-color="#C6E39F"/>
</linearGradient>
<linearGradient id="paint3_linear_378_2069" x1="96.2558" y1="43.0326" x2="102.737" y2="43.0326" gradientUnits="userSpaceOnUse">
<stop stop-color="#C6E39F"/>
<stop offset="1" stop-color="white"/>
</linearGradient>
<linearGradient id="paint4_linear_378_2069" x1="35.5748" y1="13.9749" x2="62.9516" y2="48.7442" gradientUnits="userSpaceOnUse">
<stop stop-color="#C798C6"/>
<stop offset="1" stop-color="white"/>
</linearGradient>
<linearGradient id="paint5_linear_378_2069" x1="68.1159" y1="39.0171" x2="48.0022" y2="2.45429" gradientUnits="userSpaceOnUse">
<stop stop-color="white"/>
<stop offset="1" stop-color="#C798C6"/>
</linearGradient>
<linearGradient id="paint6_linear_378_2069" x1="64.0094" y1="83.2003" x2="41.0233" y2="106.273" gradientUnits="userSpaceOnUse">
<stop stop-color="white"/>
<stop offset="1" stop-color="#D0A9D0"/>
</linearGradient>
<linearGradient id="paint7_linear_378_2069" x1="53.9205" y1="63.7555" x2="21.9912" y2="103.42" gradientUnits="userSpaceOnUse">
<stop stop-color="white"/>
<stop offset="1" stop-color="#D0A9D0"/>
</linearGradient>
<linearGradient id="paint8_linear_378_2069" x1="99.2537" y1="76.8446" x2="130.122" y2="111.405" gradientUnits="userSpaceOnUse">
<stop stop-color="white"/>
<stop offset="1" stop-color="#AA8DAB"/>
</linearGradient>
<clipPath id="clip0_378_2069">
<rect width="162" height="181" fill="white"/>
</clipPath>
</defs>
</svg>
